# xmcd
#
# Track frame offsets:
# 150
# 15387
# 34705
# 52620
# 70147
# 86810
# 104222
# 119125
# 131890
# 147510
#
# Disc length: 2209 seconds
#
#
# Revision: 0
# Processed by: cddbd v1.4PL0 Copyright (c) Steve Scherf et al.
# Submitted via: FreeRIP 2.35 
#
DISCID=92089f0a
DTITLE=Peter Wells - Meaning Of Life
DYEAR=1992
DGENRE=Blues
TTITLE0=Holy Place
TTITLE1=Jungle
TTITLE2=Love and Hate
TTITLE3=Mist On A Window
TTITLE4=Where It All Begins
TTITLE5=Heart Break Hotel
TTITLE6=Loose Cannons
TTITLE7=Nothing Wrong With Money
TTITLE8=Can't Help It If I'm Lucky
TTITLE9=Meaning Of Life
EXTD=
EXTT0=
EXTT1=
EXTT2=
EXTT3=
EXTT4=
EXTT5=
EXTT6=
EXTT7=
EXTT8=
EXTT9=
PLAYORDER=
